<svg width="20" height="20" viewBox="0 0 20 20" fill="none" xmlns="http://www.w3.org/2000/svg">
    <path d="M10.0004 0.0159918C8.09067 0.0168572 6.22108 0.564299 4.61248 1.59365C3.00387 2.623 1.72346 4.09125 0.9225 5.82496C0.121536 7.55868 -0.166522 9.48543 0.092356 11.3776C0.351234 13.2698 1.14623 15.0483 2.38344 16.5032L0.251325 18.6354C0.139116 18.7475 0.0625551 18.8904 0.0312592 19.0459C-3.66716e-05 19.2014 0.0153287 19.3628 0.0754264 19.5096C0.136577 19.6554 0.239611 19.7799 0.371494 19.8672C0.503376 19.9545 0.658184 20.0007 0.816335 20H10.0004C12.6525 20 15.1959 18.9464 17.0712 17.0711C18.9465 15.1957 20 12.6522 20 10C20 7.34783 18.9465 4.80429 17.0712 2.92893C15.1959 1.05357 12.6525 0 10.0004 0V0.0159918ZM10.0004 18.4168H2.7299L4.05714 17.0895C4.13192 17.0157 4.19129 16.9277 4.23181 16.8307C4.27234 16.7337 4.2932 16.6296 4.2932 16.5245C4.2932 16.4194 4.27234 16.3153 4.23181 16.2183C4.19129 16.1213 4.13192 16.0334 4.05714 15.9595C2.68083 14.5853 1.82358 12.7764 1.63147 10.841C1.43937 8.90558 1.9243 6.96343 3.00362 5.3455C4.08295 3.72758 5.68988 2.53398 7.5506 1.96812C9.41131 1.40226 11.4107 1.49915 13.2079 2.24227C15.0052 2.98539 16.4892 4.32877 17.4071 6.04348C18.3249 7.75819 18.6198 9.73812 18.2415 11.6459C17.8632 13.5537 16.835 15.2712 15.3323 16.5059C13.8296 17.7405 11.9452 18.4159 10.0004 18.4168Z" fill="black"/>
    <path d="M5.29805 9.28064C5.10869 9.46964 5.0017 9.72441 5 9.99041C5 10.2568 5.10705 10.5123 5.29761 10.7006C5.48816 10.889 5.74661 10.9948 6.01609 10.9948C6.21693 10.9946 6.4132 10.9356 6.58013 10.8253C6.74707 10.7149 6.87716 10.5581 6.95399 10.3747C7.03083 10.1912 7.05095 9.98943 7.01181 9.79471C6.97268 9.59999 6.87605 9.4211 6.73413 9.28064C6.53953 9.10034 6.28281 9 6.01609 9C5.74937 9 5.49265 9.10034 5.29805 9.28064ZM14.2668 9.28064C14.0765 9.46896 13.9696 9.72425 13.9696 9.99041C13.9696 10.2566 14.0765 10.5119 14.2668 10.7002C14.458 10.8874 14.7157 10.9931 14.9848 10.9948C15.1856 10.9946 15.3819 10.9356 15.5488 10.8253C15.7158 10.7149 15.8459 10.5581 15.9227 10.3747C15.9995 10.1912 16.0197 9.98943 15.9805 9.79471C15.9414 9.59999 15.8448 9.4211 15.7028 9.28064C15.5082 9.10034 15.2515 9 14.9848 9C14.7181 9 14.4614 9.10034 14.2668 9.28064ZM9.78241 9.28064C9.59213 9.46896 9.48525 9.72425 9.48525 9.99041C9.48525 10.2566 9.59213 10.5119 9.78241 10.7002C9.97278 10.8886 10.2311 10.9946 10.5004 10.9948C10.5657 11.0017 10.6316 11.0017 10.6969 10.9948L10.8866 10.9412C10.9481 10.9155 11.007 10.8841 11.0627 10.8475C11.1748 10.7725 11.2713 10.6771 11.3472 10.5663C11.3842 10.5113 11.4159 10.453 11.442 10.3922C11.4641 10.3309 11.4822 10.2683 11.4962 10.2047C11.5032 10.1401 11.5032 10.075 11.4962 10.0105C11.496 9.74421 11.3888 9.48891 11.1982 9.30073C11.0073 9.12339 10.7562 9.02301 10.4942 9.0193C10.2323 9.01558 9.97839 9.10879 9.78241 9.28064Z" fill="black"/>
</svg>
