<svg width="24" height="24" viewBox="0 0 24 24" fill="none" xmlns="http://www.w3.org/2000/svg">
    <path d="M9.09091 22.9242H9.59091V22.4242V14.9091V14.4091H9.09091H1.57576H1.07576V14.9091V22.4242V22.9242H1.57576H9.09091ZM22.4242 9.59091H22.9242V9.09091V1.57576V1.07576H22.4242H14.9091H14.4091V1.57576V9.09091V9.59091H14.9091H22.4242ZM9.09091 9.59091H9.59091V9.09091V1.57576V1.07576H9.09091H1.57576H1.07576V1.57576V9.09091V9.59091H1.57576H9.09091ZM1.33333 13.8333H9.33333C9.55435 13.8333 9.76631 13.9211 9.92259 14.0774C10.0789 14.2337 10.1667 14.4457 10.1667 14.6667V22.6667C10.1667 22.8877 10.0789 23.0996 9.92259 23.2559C9.76631 23.4122 9.55435 23.5 9.33333 23.5H1.33333C1.11232 23.5 0.900358 23.4122 0.744078 23.2559C0.587798 23.0996 0.5 22.8877 0.5 22.6667V14.6667C0.5 14.4457 0.587797 14.2337 0.744078 14.0774C0.900358 13.9211 1.11232 13.8333 1.33333 13.8333ZM14.6667 0.5H22.6667C22.8877 0.5 23.0996 0.587798 23.2559 0.744078C23.4122 0.900358 23.5 1.11232 23.5 1.33333V9.33333C23.5 9.55435 23.4122 9.76631 23.2559 9.92259C23.0996 10.0789 22.8877 10.1667 22.6667 10.1667H14.6667C14.4457 10.1667 14.2337 10.0789 14.0774 9.92259C13.9211 9.76631 13.8333 9.55435 13.8333 9.33333V1.33333C13.8333 1.11232 13.9211 0.900358 14.0774 0.744078C14.2337 0.587797 14.4457 0.5 14.6667 0.5ZM1.33333 0.5H9.33333C9.55435 0.5 9.76631 0.587797 9.92259 0.744078C10.0789 0.900358 10.1667 1.11232 10.1667 1.33333V9.33333C10.1667 9.55435 10.0789 9.76631 9.92259 9.92259C9.76631 10.0789 9.55435 10.1667 9.33333 10.1667H1.33333C1.11232 10.1667 0.900358 10.0789 0.744078 9.92259C0.587797 9.76631 0.5 9.55435 0.5 9.33333V1.33333C0.5 1.11232 0.587797 0.900358 0.744078 0.744078C0.900358 0.587797 1.11232 0.5 1.33333 0.5Z" fill="#999999" stroke="#999999"/>
    <path d="M22.375 17.375H18.625V13.625C18.625 13.4592 18.5592 13.3003 18.4419 13.1831C18.3247 13.0658 18.1658 13 18 13C17.8342 13 17.6753 13.0658 17.5581 13.1831C17.4408 13.3003 17.375 13.4592 17.375 13.625V17.375H13.625C13.4592 17.375 13.3003 17.4408 13.1831 17.5581C13.0658 17.6753 13 17.8342 13 18C13 18.1658 13.0658 18.3247 13.1831 18.4419C13.3003 18.5592 13.4592 18.625 13.625 18.625H17.375V22.375C17.375 22.5408 17.4408 22.6997 17.5581 22.8169C17.6753 22.9342 17.8342 23 18 23C18.1658 23 18.3247 22.9342 18.4419 22.8169C18.5592 22.6997 18.625 22.5408 18.625 22.375V18.625H22.375C22.5408 18.625 22.6997 18.5592 22.8169 18.4419C22.9342 18.3247 23 18.1658 23 18C23 17.8342 22.9342 17.6753 22.8169 17.5581C22.6997 17.4408 22.5408 17.375 22.375 17.375Z" fill="#999999" stroke="#999999" stroke-width="0.6"/>
</svg>
