<svg width="24" height="18" viewBox="0 0 24 18" fill="none" xmlns="http://www.w3.org/2000/svg">
    <path d="M4.53683 13.618C4.70424 13.7772 4.92355 13.8568 5.14286 13.8568C5.36217 13.8568 5.58147 13.7772 5.74888 13.618C6.08371 13.2997 6.08371 12.7838 5.74888 12.4654L2.0692 8.96626L5.74888 5.46706C6.08371 5.14866 6.08371 4.63286 5.74888 4.31446C5.41406 3.99606 4.87165 3.99606 4.53683 4.31446L0.251116 8.38995C-0.0837054 8.70835 -0.0837054 9.22416 0.251116 9.54256L4.53683 13.618ZM18.2511 13.618C18.4185 13.7772 18.6378 13.8568 18.8571 13.8568C19.0765 13.8568 19.2958 13.7772 19.4632 13.618L23.7489 9.54256C24.0837 9.22416 24.0837 8.70835 23.7489 8.38995L19.4632 4.31446C19.1283 3.99606 18.5859 3.99606 18.2511 4.31446C17.9163 4.63286 17.9163 5.14866 18.2511 5.46706L21.9308 8.96626L18.2511 12.4654C17.9163 12.7838 17.9163 13.2997 18.2511 13.618ZM7.79213 17.9284C7.90597 17.9769 8.02483 18 8.14202 18C8.47015 18 8.78237 17.8209 8.92467 17.5184L16.639 1.14879C16.8331 0.738056 16.6398 0.255683 16.2079 0.0718078C15.7751 -0.112863 15.2687 0.0710118 15.0753 0.481745L7.36105 16.8514C7.16685 17.2621 7.36021 17.7445 7.79213 17.9284Z" fill="black"/>
</svg>
