<svg width="24" height="24" viewBox="0 0 24 24" fill="none" xmlns="http://www.w3.org/2000/svg">
    <path d="M15.9111 1C12 1 8.82222 4.17778 8.82222 8.08889C8.82222 8.35778 8.84667 8.60222 8.87111 8.87111C8.62667 8.84667 8.35778 8.82222 8.08889 8.82222C4.17778 8.82222 1 12 1 15.9111C1 19.8222 4.17778 23 8.08889 23C12 23 15.1778 19.8222 15.1778 15.9111C15.1778 15.6422 15.1533 15.3978 15.1289 15.1289C15.3733 15.1533 15.6422 15.1778 15.9111 15.1778C19.8222 15.1778 23 12 23 8.08889C23 4.17778 19.8222 1 15.9111 1ZM8.08889 22.0222C4.71556 22.0222 1.97778 19.2844 1.97778 15.9111C1.97778 12.5378 4.71556 9.8 8.08889 9.8C11.4622 9.8 14.2 12.5378 14.2 15.9111C14.2 19.2844 11.4622 22.0222 8.08889 22.0222ZM15.9111 14.2C15.5933 14.2 15.2511 14.1756 14.9578 14.1267C14.7622 13.3689 14.4444 12.6356 14.0044 12C14.0044 11.9756 13.98 11.9511 13.9556 11.9511C13.98 10.9 14.86 10.0444 15.9111 10.0444C16.9867 10.0444 17.8667 10.9244 17.8667 12C17.8667 12.2689 18.0867 12.4889 18.3556 12.4889C18.6244 12.4889 18.8444 12.2689 18.8444 12C18.8444 10.3867 17.5244 9.06667 15.9111 9.06667C14.6644 9.06667 13.5889 9.84889 13.1733 10.9733C12.2933 10.0689 11.1444 9.38445 9.87333 9.04222C9.82444 8.72444 9.8 8.40667 9.8 8.08889C9.8 4.71556 12.5378 1.97778 15.9111 1.97778C19.2844 1.97778 22.0222 4.71556 22.0222 8.08889C22.0222 11.4622 19.2844 14.2 15.9111 14.2ZM11.0222 17.6222C11.0222 19.2356 9.70222 20.5556 8.08889 20.5556C6.47556 20.5556 5.15556 19.2356 5.15556 17.6222C5.15556 17.3533 5.37556 17.1333 5.64444 17.1333C5.91333 17.1333 6.13333 17.3533 6.13333 17.6222C6.13333 18.6978 7.01333 19.5778 8.08889 19.5778C9.16444 19.5778 10.0444 18.6978 10.0444 17.6222C10.0444 17.3533 10.2644 17.1333 10.5333 17.1333C10.8022 17.1333 11.0222 17.3533 11.0222 17.6222Z" fill="black" stroke="black" stroke-width="0.4"/>
</svg>
