<svg width="22" height="22" viewBox="0 0 22 22" fill="none" xmlns="http://www.w3.org/2000/svg">
    <path fill-rule="evenodd" clip-rule="evenodd" d="M4.108 3.867C4.825 3.77 5.703 3.753 6.759 3.751C6.82174 2.93446 7.19044 2.17171 7.79134 1.61531C8.39224 1.0589 9.18105 0.749861 10 0.75H12C12.8186 0.750093 13.607 1.05911 14.2077 1.61528C14.8084 2.17145 15.177 2.93381 15.24 3.75C16.297 3.753 17.175 3.77 17.892 3.867C18.792 3.987 19.55 4.247 20.152 4.848C20.754 5.45 21.012 6.208 21.134 7.108C21.25 7.975 21.25 9.078 21.25 10.445V14.555C21.25 15.922 21.25 17.025 21.134 17.892C21.012 18.792 20.754 19.55 20.152 20.152C19.55 20.754 18.792 21.012 17.892 21.134C17.025 21.25 15.922 21.25 14.555 21.25H7.445C6.078 21.25 4.975 21.25 4.108 21.134C3.208 21.012 2.45 20.754 1.848 20.152C1.246 19.55 0.988 18.792 0.867 17.892C0.75 17.025 0.75 15.922 0.75 14.555V10.445C0.75 9.078 0.75 7.975 0.867 7.108C0.987 6.208 1.247 5.45 1.848 4.848C2.45 4.246 3.208 3.988 4.108 3.867ZM13.732 3.75H8.268C8.32811 3.33351 8.53629 2.95263 8.85439 2.67714C9.17248 2.40165 9.57919 2.25001 10 2.25H12C12.4208 2.25001 12.8275 2.40165 13.1456 2.67714C13.4637 2.95263 13.6719 3.33351 13.732 3.75ZM4.308 19.647C3.574 19.548 3.186 19.367 2.909 19.091C2.632 18.814 2.452 18.426 2.353 17.691C2.252 16.936 2.25 15.935 2.25 14.5V11.13C5.938 12.678 8.092 13.524 10.36 13.63C10.786 13.65 11.214 13.65 11.64 13.63C13.908 13.524 16.062 12.678 19.75 11.13V14.5C19.75 15.935 19.748 16.936 19.647 17.692C19.548 18.426 19.367 18.814 19.091 19.091C18.814 19.368 18.426 19.548 17.691 19.647C16.936 19.748 15.935 19.75 14.5 19.75H7.5C6.065 19.75 5.063 19.748 4.308 19.647ZM19.748 9.503C15.623 11.238 13.639 12.035 11.57 12.131C11.19 12.149 10.81 12.149 10.43 12.131C8.36 12.035 6.377 11.238 2.252 9.503C2.257 8.58 2.277 7.875 2.353 7.308C2.452 6.574 2.633 6.186 2.909 5.909C3.186 5.632 3.574 5.452 4.309 5.353C5.063 5.252 6.065 5.25 7.5 5.25H14.5C15.935 5.25 16.936 5.252 17.692 5.353C18.426 5.452 18.814 5.633 19.091 5.909C19.368 6.186 19.548 6.574 19.647 7.309C19.723 7.875 19.743 8.579 19.748 9.503Z" fill="#292D32"/>
</svg>
