<svg width="24" height="24" viewBox="0 0 24 24" fill="none" xmlns="http://www.w3.org/2000/svg">
    <path d="M4 16V5" stroke="black" stroke-width="1.4" stroke-linecap="round" stroke-linejoin="round"/>
    <path d="M20 5V16" stroke="black" stroke-width="1.4" stroke-linecap="round" stroke-linejoin="round"/>
    <path d="M8 11V13" stroke="black" stroke-width="1.4" stroke-linecap="round" stroke-linejoin="round"/>
    <path d="M12 10V13" stroke="black" stroke-width="1.4" stroke-linecap="round" stroke-linejoin="round"/>
    <path d="M16 9V13" stroke="black" stroke-width="1.4" stroke-linecap="round" stroke-linejoin="round"/>
    <path d="M21.1667 1H2.83333C2.3731 1 2 1.44772 2 2V4C2 4.55228 2.3731 5 2.83333 5H21.1667C21.6269 5 22 4.55228 22 4V2C22 1.44772 21.6269 1 21.1667 1Z" stroke="black" stroke-width="1.4" stroke-linecap="round" stroke-linejoin="round"/>
    <path d="M12 16V19" stroke="black" stroke-width="1.4" stroke-linecap="round" stroke-linejoin="round"/>
    <path d="M12 23C13.1046 23 14 22.1046 14 21C14 19.8954 13.1046 19 12 19C10.8954 19 10 19.8954 10 21C10 22.1046 10.8954 23 12 23Z" stroke="black" stroke-width="1.4" stroke-linecap="round" stroke-linejoin="round"/>
    <path d="M2 16H22" stroke="black" stroke-width="1.4" stroke-linecap="round" stroke-linejoin="round"/>
</svg>
